<svg xmlns="http://www.w3.org/2000/svg" width="83" height="20" viewBox="0 0 83 20"><path fill-rule="evenodd" d="M24.3191645,19.4046659 L38.607915,19.4046659 L38.607915,16.4869916 L27.3283254,16.4869916 L27.3283254,11.3808477 L37.5805545,11.3808477 L37.5805545,8.48931232 L27.3283254,8.48931232 L27.3283254,3.48210578 L38.6081593,3.48210578 L38.6081593,0.563942836 L24.3191645,0.563942836 L24.3191645,19.4046659 M66.0942958,3.47893001 L72.9958471,3.47893001 L72.9958471,19.4014902 L76.0050079,19.4014902 L76.0050079,3.47893001 L82.9066813,3.47893001 L82.9066813,0.561255649 L66.0942958,0.561255649 L66.0942958,3.47893001 M13.9664102,12.8713815 L0,0 L0,19.4046659 L3.00940515,19.4046659 L3.00940515,6.96836448 L16.975571,20 L16.975571,0.563454257 L13.9664102,0.563454257 L13.9664102,12.8713815 M58.6167094,0.562477098 L53.0942958,7.42848418 L47.571638,0.562477098 L43.6812019,0.562477098 L51.1667277,9.75607671 L43.6812019,19.4041774 L47.571638,19.4041774 L53.0940515,12.2434347 L58.6167094,19.4051545 L62.5072676,19.4051545 L55.0216196,9.75705387 L62.5072676,0.563209967 L58.6167094,0.562477098"/></svg>